<?xml version="1.0" encoding="utf-8"?>
<!-- Generator: Adobe Illustrator 17.1.0, SVG Export Plug-In . SVG Version: 6.00 Build 0)  -->
<!DOCTYPE svg PUBLIC "-//W3C//DTD SVG 1.1//EN" "http://www.w3.org/Graphics/SVG/1.1/DTD/svg11.dtd">
<svg version="1.1" id="Layer_1" xmlns="http://www.w3.org/2000/svg" xmlns:xlink="http://www.w3.org/1999/xlink" x="0px" y="0px"
	 viewBox="0 0 344.1 52.5" enable-background="new 0 0 344.1 52.5" xml:space="preserve">
<path fill="#EF6C23" d="M106.3,42V23.6c0-0.7-0.3-1-1-1h-6.9c-0.7,0-1,0.3-1,1V42h-5.3V23.6c0-0.7-0.3-1-1-1h-6.9c-0.7,0-1,0.3-1,1
	V42h-5.3V17.3h5.3v1.6c0-1,0.9-1.6,2.6-1.6h5.3c1.8,0,3,0.6,3.7,1.8c0.9-1.2,2.1-1.8,3.7-1.8h6.9c1.7,0,3.1,0.6,4.4,1.9
	c1.3,1.2,1.9,2.7,1.9,4.4V42H106.3z"/>
<path fill="#EF6C23" d="M143.2,42v-1.6c0,1-0.9,1.6-2.6,1.6H130c-1.7,0-3.2-0.6-4.5-1.8c-1.2-1.3-1.8-2.8-1.8-4.5v-1.9
	c0-1.8,1-3,3-3.7l16.5-5.3v-0.7c0-1-0.4-1.6-1.1-1.6H130c-0.7,0-1,0.3-1,1v2.6h-5.3v-2.6c0-1.8,0.6-3.3,1.8-4.5
	c1.2-1.2,2.7-1.8,4.5-1.8h12.1c1.8,0,3.3,0.6,4.5,1.8c1.2,1.2,1.8,2.7,1.8,4.5V42H143.2z M143.2,30.2l-12,3.6
	c-1.4,0.4-2.2,1.1-2.2,2c0,0.7,0.3,1,1,1h12.1c0.7,0,1.1-0.4,1.1-1.1V30.2z"/>
<path fill="#EF6C23" d="M179,42v-1.6c0,1-0.9,1.6-2.6,1.6h-10.5c-1.7,0-3.2-0.6-4.5-1.8c-1.2-1.3-1.8-2.8-1.8-4.5V23.6
	c0-1.8,0.6-3.3,1.8-4.5c1.2-1.2,2.7-1.8,4.5-1.8h10.5c1.7,0,2.6,0.5,2.6,1.6V0h5.2v42H179z M179,23.6c0-0.7-0.4-1-1.1-1h-12.1
	c-0.7,0-1,0.3-1,1v12.1c0,0.7,0.3,1.1,1,1.1h12.1c0.7,0,1.1-0.4,1.1-1.1V23.6z"/>
<path fill="#EF6C23" d="M221.7,50.7c-1.2,1.2-2.7,1.8-4.5,1.8h-13.1v-5.3h13.1c0.7,0,1.1-0.3,1.1-1v-5.7c0,1-0.9,1.6-2.6,1.6h-10.5
	c-1.7,0-3.2-0.6-4.5-1.8c-1.2-1.3-1.8-2.8-1.8-4.5V23.6c0-1.8,0.6-3.3,1.8-4.5c1.2-1.2,2.7-1.8,4.5-1.8h10.5c1.7,0,2.6,0.5,2.6,1.6
	v-1.6h5.2v28.9C223.6,48,222.9,49.5,221.7,50.7z M218.3,23.6c0-0.7-0.4-1-1.1-1h-12.1c-0.7,0-1,0.3-1,1v12.1c0,0.7,0.3,1.1,1,1.1
	h12.1c0.7,0,1.1-0.4,1.1-1.1V23.6z"/>
<path fill="#EF6C23" d="M237.7,42V0h5.3v42H237.7z"/>
<path fill="#EF6C23" d="M279,40.2c-1.2,1.2-2.7,1.8-4.5,1.8h-12.1c-1.7,0-3.2-0.6-4.5-1.8c-1.2-1.3-1.8-2.8-1.8-4.5V23.6
	c0-1.8,0.6-3.3,1.8-4.5c1.2-1.2,2.7-1.8,4.5-1.8h12.1c1.8,0,3.3,0.6,4.5,1.8c1.2,1.2,1.8,2.7,1.8,4.5v12.1
	C280.8,37.5,280.2,39,279,40.2z M275.6,23.6c0-0.7-0.4-1-1.1-1h-12.1c-0.7,0-1,0.3-1,1v12.1c0,0.7,0.3,1.1,1,1.1h12.1
	c0.7,0,1.1-0.4,1.1-1.1V23.6z"/>
<path fill="#EF6C23" d="M300.2,22.6c-0.7,0-1,0.3-1,1V42h-5.3V17.3h5.3v1.6c0-1,0.9-1.6,2.6-1.6h6.6v5.3H300.2z"/>
<path fill="#EF6C23" d="M342.3,50.7c-1.2,1.2-2.7,1.8-4.5,1.8h-13.1v-5.3h13.1c0.7,0,1.1-0.3,1.1-1v-5.7c0,1-0.9,1.6-2.6,1.6h-10.5
	c-1.7,0-3.2-0.6-4.5-1.8c-1.2-1.3-1.8-2.8-1.8-4.5V17.3h5.3v18.4c0,0.7,0.3,1.1,1,1.1h12.1c0.7,0,1.1-0.4,1.1-1.1V17.3h5.2v28.9
	C344.1,48,343.5,49.5,342.3,50.7z"/>
<g>
	<polygon fill="#EF6C23" points="35.3,36.3 22,43.4 13.2,38.7 13.2,38.7 8.8,36.3 8.8,31.6 22.1,38.7 35.3,31.6 	"/>
	<path fill="#EF6C23" d="M8.8,45.7V41l13.2,7.1l8.8-4.7v0l4.4-2.4l0,4.7L23,52.3c-0.3,0.1-0.6,0.2-1,0.2c-0.4,0-0.7-0.1-1-0.2
		L8.8,45.7z"/>
	<g>
		<path fill="#EF6C23" d="M22.1,33.9l17.6-9.4v18.9l3.2-1.7c0.7-0.4,1.2-1.1,1.2-1.9v-1.1V17.4L22.1,29.2L0,17.4v21.2v1.1
			c0,0.8,0.5,1.6,1.2,1.9l3.2,1.7V24.5L22.1,33.9z"/>
	</g>
</g>
</svg>
